<svg xmlns="http://www.w3.org/2000/svg" viewBox="0 0 73.98 107.63"><path d="M75.57,321.82a33,33,0,0,0-17.22-4.65,31.55,31.55,0,0,0-14.79,3.41A30.26,30.26,0,0,0,33.21,329V318.35H18.29V424.8H33.21V380a32.77,32.77,0,0,0,10.48,8.31,31.21,31.21,0,0,0,14.66,3.34,32.24,32.24,0,0,0,17.22-4.78,33.23,33.23,0,0,0,12.24-13.35,41.56,41.56,0,0,0,4.45-19.44,40.38,40.38,0,0,0-4.45-19.25A32.68,32.68,0,0,0,75.57,321.82ZM74,367.19a21.78,21.78,0,0,1-8.12,8.58,21.26,21.26,0,0,1-21.47.06,21.32,21.32,0,0,1-8.12-8.44,26.54,26.54,0,0,1-3.08-13,26.1,26.1,0,0,1,3.08-13A21.42,21.42,0,0,1,44.41,333a21.2,21.2,0,0,1,10.67-2.89A21.77,21.77,0,0,1,65.88,333,21.13,21.13,0,0,1,74,341.2a25.76,25.76,0,0,1,3.08,12.9A26.88,26.88,0,0,1,74,367.19Z" transform="translate(-18.29 -317.17)" style="fill:#1c75bc"/><rect x="29.85" y="92.7" width="29.2" height="14.93" style="fill:#ed1c24"/></svg>